HIERARCHY
ROOT hip
{
	OFFSET 0.000000 0.000000 0.000000 
	CHANNELS 6 Xposition Yposition Zposition Xrotation Zrotation Yrotation
	JOINT abdomen
	{
		OFFSET 0.000000 3.402643 0.000000 
		CHANNELS 3 Xrotation Zrotation Yrotation
		JOINT chest
		{
			OFFSET 0.000000 8.438565 -0.680529 
			CHANNELS 3 Xrotation Zrotation Yrotation
			JOINT neck
			{
				OFFSET 0.000000 10.207942 -0.272212 
				CHANNELS 3 Xrotation Zrotation Yrotation
				JOINT head
				{
					OFFSET 0.000000 3.130431 0.000000 
					CHANNELS 3 Xrotation Zrotation Yrotation
					End Site
					{
						OFFSET 0.000000 3.130435 0.000000 
					}
				}
			}
			JOINT lCollar
			{
				OFFSET 3.470700 6.669187 -0.816635 
				CHANNELS 3 Yrotation Zrotation Xrotation
				JOINT lShldr
				{
					OFFSET 3.198488 0.000000 0.000000 
					CHANNELS 3 Zrotation Yrotation Xrotation
					JOINT lForeArm
					{
						OFFSET 10.139888 0.000000 0.000000 
						CHANNELS 3 Yrotation Zrotation Xrotation
						JOINT lHand
						{
							OFFSET 8.370511 0.000000 0.000000 
							CHANNELS 3 Zrotation Yrotation Xrotation
							End Site
							{
								OFFSET 4.083176 0.000000 0.000000 
							}
						}
					}
				}
			}
			JOINT rCollar
			{
				OFFSET -3.470700 6.669187 -0.816635 
				CHANNELS 3 Yrotation Zrotation Xrotation
				JOINT rShldr
				{
					OFFSET -3.198488 0.000000 0.000000 
					CHANNELS 3 Zrotation Yrotation Xrotation
					JOINT rForeArm
					{
						OFFSET -10.139888 0.000000 0.000000 
						CHANNELS 3 Yrotation Zrotation Xrotation
						JOINT rHand
						{
							OFFSET -8.370511 0.000000 0.000000 
							CHANNELS 3 Zrotation Yrotation Xrotation
							End Site
							{
								OFFSET -4.083176 0.000000 0.000000 
							}
						}
					}
				}
			}
		}
	}
	JOINT lThigh
	{
		OFFSET 5.308129 -1.633274 1.361059 
		CHANNELS 3 Xrotation Zrotation Yrotation
		JOINT lShin
		{
			OFFSET -2.041588 -20.007561 0.000000 
			CHANNELS 3 Xrotation Zrotation Yrotation
			JOINT lFoot
			{
				OFFSET 0.000000 -19.190928 -1.224953 
				CHANNELS 3 Xrotation Yrotation Zrotation
				End Site
				{
					OFFSET 0.000000 -2.449906 4.627600 
				}
			}
		}
	}
	JOINT rThigh
	{
		OFFSET -5.308129 -1.633274 1.361059 
		CHANNELS 3 Xrotation Zrotation Yrotation
		JOINT rShin
		{
			OFFSET 2.041588 -20.007561 0.000000 
			CHANNELS 3 Xrotation Zrotation Yrotation
			JOINT rFoot
			{
				OFFSET 0.000000 -19.190928 -1.224953 
				CHANNELS 3 Xrotation Yrotation Zrotation
				End Site
				{
					OFFSET 0.000000 -2.449906 4.627600 
				}
			}
		}
	}
}
MOTION
Frames: 19
Frame Time: 0.011111
5.635125 50.648823 53.766056 23.009501 0.599140 4.180548 -6.783828 -2.222577 -1.829597 -17.568995 -1.340616 -0.623580 -24.330114 -3.428442 -0.816278 50.420799 4.685720 -1.708402 -5.788594 -15.737329 -1.465587 -55.093578 -4.888705 3.598424 -62.777431 9.428956 13.659295 8.524705 12.647240 -42.181038 7.611086 14.174596 -1.900835 52.759758 7.104172 26.416710 47.127720 -6.990396 7.024396 -8.534408 -12.637552 56.771339 -13.458776 2.484729 19.387365 51.767220 -3.617542 -7.384127 -40.484089 35.099041 19.052103 -36.115337 2.265085 -5.809385 42.716419 4.447037 6.377652 -60.776485 -2.937295 -13.208443 
5.608881 50.660343 53.755497 23.001825 0.653511 4.128997 -6.705648 -2.374156 -1.704342 -17.422667 -1.251993 -0.586048 -24.489864 -3.553002 -0.792024 50.535099 4.883187 -1.649836 -5.788594 -15.737329 -1.465587 -54.935436 -5.119015 3.869281 -63.065334 9.437942 13.792233 8.524705 12.647240 -42.073620 7.611086 14.174596 -1.900835 52.715050 6.990813 27.381330 47.573780 -7.112885 7.199339 -8.534408 -12.637552 57.620953 -13.637937 2.526315 19.557816 51.964214 -3.605615 -7.376338 -35.320950 39.512455 16.411716 -36.182415 2.431050 -5.292628 42.627663 4.447205 6.379965 -61.167835 -2.729104 -13.290641 
5.594155 50.671867 53.746216 23.002619 0.756205 4.161994 -6.646931 -2.588474 -1.686176 -17.246984 -1.191855 -0.578675 -24.354551 -3.612917 -0.795936 50.196556 4.993140 -1.640972 -5.788594 -15.737329 -1.465587 -54.817245 -5.441391 3.930900 -63.383541 9.441086 13.931035 8.524705 12.647240 -41.995495 7.611086 14.174596 -1.900835 52.696693 6.900187 28.381195 47.977581 -7.212831 7.350324 -8.534408 -12.637552 58.617046 -13.667497 2.418809 19.690361 52.012726 -3.578534 -7.416173 -32.045486 41.749844 14.477221 -36.234779 2.382563 -5.112677 42.646255 4.460083 6.385588 -61.247616 -2.820803 -13.468013 
5.582314 50.667702 53.749729 23.021290 0.793451 4.221108 -6.676338 -2.700323 -1.637148 -17.032236 -1.131663 -0.561947 -24.153835 -3.782058 -0.787652 49.802185 5.208278 -1.627393 -5.788594 -15.737329 -1.465587 -54.712418 -5.725800 4.089391 -63.948303 9.450049 14.190034 8.524705 12.647240 -41.946663 7.611086 14.174596 -1.900835 52.630116 6.725305 29.406942 48.372688 -7.318622 7.519848 -8.534408 -12.637552 59.749859 -13.664723 2.368050 19.779852 52.091259 -3.588111 -7.407813 -31.132399 42.096951 13.871937 -36.265167 2.333727 -5.122264 42.646255 4.460081 6.385587 -61.215084 -2.914671 -13.580529 
5.549347 50.659706 53.716125 23.015301 0.976127 4.192208 -6.472392 -3.055869 -1.556948 -17.101076 -0.918368 -0.525448 -24.184000 -3.816158 -0.813013 49.776638 5.149276 -1.727096 -5.788594 -15.737329 -1.465587 -54.652618 -5.945786 4.089947 -64.481041 9.453574 14.436228 8.524705 12.647240 -42.161510 7.611086 14.174596 -1.900835 52.536644 6.448999 30.603260 48.767532 -7.413751 7.663255 -8.534408 -12.637552 61.117046 -13.683616 2.201788 19.827188 52.150105 -3.578353 -7.417849 -32.417221 41.453632 14.697471 -36.428574 2.391803 -4.539585 42.696781 4.447014 6.375953 -61.581470 -2.849107 -13.784788 
5.516701 50.655228 53.657555 22.984518 0.973391 4.253259 -6.101412 -3.193188 -1.497809 -17.609070 -0.855000 -0.496501 -24.124693 -3.800704 -0.856358 49.908676 5.089159 -1.811843 -5.788594 -15.737329 -1.465587 -54.502254 -5.686432 4.465800 -65.003120 9.452686 14.684106 8.524705 12.647240 -42.073620 7.611086 14.174596 -1.900835 52.549728 5.840949 31.759390 49.215862 -7.528820 7.854287 -8.534408 -12.637552 62.640484 -13.812058 2.232386 19.899040 52.228489 -3.576338 -7.423458 -33.221615 41.045498 15.199958 -36.529827 2.577246 -4.089256 42.725067 4.457033 6.392037 -62.055450 -2.507001 -13.747439 
5.519580 50.662582 53.638031 22.940195 1.068689 4.535501 -5.895696 -3.328210 -1.652363 -17.941071 -0.886788 -0.521203 -23.979034 -3.838578 -0.861028 49.997665 5.139050 -1.807965 -5.788594 -15.737329 -1.465587 -54.407318 -5.353838 4.799263 -65.398262 9.450817 14.869112 8.524705 12.647240 -42.005264 7.611086 14.174596 -1.900835 52.538338 5.190758 33.267937 49.757324 -7.652258 8.061449 -8.534408 -12.637552 64.652199 -13.764770 2.028488 19.838940 52.238045 -3.566713 -7.439113 -32.276142 39.780022 14.284768 -36.513462 2.265412 -4.351957 42.765022 4.440635 6.408756 -61.945049 -2.443788 -13.574623 
5.531423 50.669304 53.640591 22.950922 0.992789 4.811585 -5.865368 -3.233463 -1.767179 -17.979933 -0.994091 -0.560942 -23.942509 -3.930294 -0.855355 50.057652 5.205155 -1.813954 -5.788594 -15.737329 -1.465587 -54.337997 -5.366961 4.862378 -65.535767 9.446448 14.932349 8.524705 12.647240 -42.190804 7.611086 14.174596 -1.900835 52.518147 4.696866 34.744850 50.258080 -7.766529 8.268643 -8.534408 -12.637552 66.732277 -13.793989 1.989218 19.686558 52.277874 -3.566544 -7.423004 -31.844152 39.132683 13.830783 -36.474300 2.011322 -4.905806 42.735897 4.440578 6.396521 -61.300163 -2.845388 -13.532152 
5.523740 50.668346 53.632271 22.971083 0.701147 4.943739 -5.836831 -2.937006 -1.765061 -17.852930 -1.012237 -0.573185 -24.123150 -4.082000 -0.816338 50.178928 5.336224 -1.792059 -5.788594 -15.737329 -1.465587 -54.302189 -5.540167 4.939926 -65.759232 9.441529 15.033671 8.524705 12.647240 -42.220104 7.611086 14.174596 -1.900835 52.338692 4.400901 36.486084 50.843384 -7.894537 8.499196 -8.534408 -12.637552 69.115097 -13.909930 2.281235 19.609049 52.375744 -3.566532 -7.431149 -33.442802 37.800465 14.677157 -36.384808 2.138113 -5.332720 42.686337 4.450320 6.386173 -61.421345 -3.560761 -14.532091 
5.512538 50.656502 53.611465 22.980722 0.407800 5.106374 -5.769205 -2.643182 -1.742373 -17.706409 -1.020532 -0.575934 -24.217442 -4.288162 -0.813277 50.085129 5.508725 -1.807107 -5.788594 -15.737329 -1.465587 -54.288849 -5.784137 5.015462 -66.036514 9.436540 15.170391 8.524705 12.647240 -42.249401 7.611086 14.174596 -1.900835 52.222210 4.063094 37.841003 51.576542 -8.051166 8.802673 -8.534408 -12.637552 71.331894 -14.077409 2.565161 19.484932 52.542774 -3.529497 -7.456691 -37.505264 34.290375 16.649191 -36.313946 2.362657 -5.575333 42.576958 4.466770 6.382100 -61.449524 -3.922700 -15.026683 
5.502936 50.645943 53.596096 22.961618 0.084886 5.244603 -5.681522 -2.318964 -1.702301 -17.530443 -1.097063 -0.570844 -24.411024 -4.526104 -0.796776 50.051495 5.755056 -1.833191 -5.788594 -15.737329 -1.465587 -54.237877 -6.014775 5.131557 -66.364334 9.422170 15.321995 8.524705 12.647240 -42.220104 7.611086 14.174596 -1.900835 52.210045 3.747130 38.990650 52.332008 -8.203199 9.111213 -8.534408 -12.637552 73.402199 -14.250219 2.895092 19.347597 52.758602 -3.509934 -7.475077 -39.594421 31.972164 17.396404 -36.177250 2.568011 -5.921155 42.429848 4.460090 6.376612 -61.404850 -3.985555 -15.058195 
5.477651 50.640820 53.590656 22.986605 -0.125352 5.283792 -5.633466 -2.174405 -1.631442 -17.481689 -1.057724 -0.561209 -24.542217 -4.641375 -0.775445 50.052380 5.807188 -1.843842 -5.788594 -15.737329 -1.465587 -54.183277 -6.078330 5.281266 -66.631485 9.416122 15.457883 8.524705 12.647240 -42.190804 7.611086 14.174596 -1.900835 52.132111 3.325327 40.255180 53.089169 -8.348641 9.425176 -8.534408 -12.637552 75.511581 -14.469834 3.181903 19.379080 52.905556 -3.498229 -7.491426 -39.135555 32.622574 17.285629 -36.128048 2.831309 -5.916191 42.351254 4.476374 6.337054 -61.660316 -3.658620 -14.875288 
5.435722 50.640499 53.591618 23.027569 -0.025156 5.264192 -5.633784 -2.455848 -1.548783 -17.569889 -0.912685 -0.527495 -24.425314 -4.657903 -0.778374 50.003555 5.807815 -1.839709 -5.788594 -15.737329 -1.465587 -54.128712 -5.935908 5.384492 -66.865189 9.406389 15.569204 8.524705 12.647240 -42.229866 7.611086 14.174596 -1.900835 52.160976 2.650383 41.171829 54.069168 -8.525031 9.838506 -8.534408 -12.637552 77.425636 -14.577010 3.162007 19.529346 52.954399 -3.507990 -7.490437 -37.591564 34.516075 16.766611 -36.238811 2.939276 -5.485291 42.311371 4.479553 6.344471 -62.098858 -3.370085 -14.908178 
5.418758 50.637623 53.621384 23.091354 0.057385 5.429346 -5.770210 -2.724688 -1.553401 -17.814106 -0.885776 -0.513402 -23.974812 -4.660854 -0.838434 49.874863 5.860785 -1.919460 -5.788594 -15.737329 -1.465587 -54.009388 -5.552046 5.525790 -67.138817 9.387280 15.689373 8.524705 12.647240 -42.278698 7.611086 14.174596 -1.900835 52.288612 1.623070 41.995506 55.156746 -8.702056 10.295313 -8.534408 -12.637552 79.281105 -14.529604 3.036299 19.563950 52.895363 -3.508273 -7.495255 -37.903404 34.341999 16.932617 -36.292591 2.724076 -5.713764 42.371109 4.469832 6.346043 -61.936710 -3.628093 -15.076830 
5.420038 50.631538 53.639629 23.232796 0.113986 5.587172 -5.934791 -2.878953 -1.547218 -18.224148 -0.967625 -0.497884 -23.553823 -4.671347 -0.914529 49.980511 5.930700 -2.000356 -5.788594 -15.737329 -1.465587 -53.865891 -5.009035 5.777778 -67.447563 9.374065 15.848201 8.524705 12.647240 -42.239635 7.611086 14.174596 -1.900835 52.358593 0.500693 43.380058 56.098755 -8.843308 10.701866 -8.534408 -12.637552 81.605324 -14.478471 2.868359 19.522490 52.768387 -3.509951 -7.475898 -40.168449 31.843756 17.758614 -36.461273 2.479734 -5.983853 42.488762 4.476432 6.348957 -61.756233 -3.794833 -15.152510 
5.399875 50.618412 53.642513 23.339809 0.193192 5.626047 -6.041563 -3.092249 -1.428876 -18.321814 -0.968705 -0.457172 -23.473303 -4.611498 -0.957985 50.113079 5.864842 -2.051273 -5.788594 -15.737329 -1.465587 -53.697556 -4.728580 6.213337 -67.691734 9.359964 15.962656 8.524705 12.647240 -41.868546 7.611086 14.174596 -1.900835 52.342251 -0.297354 44.845089 57.127159 -8.981452 11.149326 -8.534408 -12.637552 84.163918 -14.435123 2.757855 19.565336 52.639961 -3.529703 -7.484214 -41.994263 29.405327 18.182068 -36.677803 2.440921 -5.841598 42.578304 4.450328 6.376856 -62.024811 -3.830332 -15.410790 
5.382270 50.609451 53.650833 23.434614 0.326697 5.762840 -6.158909 -3.366928 -1.469082 -18.136358 -0.908539 -0.469531 -23.500074 -4.522039 -0.919696 50.070168 5.687167 -2.022295 -5.788594 -15.737329 -1.465587 -53.583939 -4.590545 6.837946 -68.071739 9.331757 16.142082 8.524705 12.647240 -41.145885 7.611086 14.174596 -1.900835 52.277493 -0.845352 45.988827 58.115456 -9.100572 11.582637 -8.534408 -12.637552 86.351418 -14.384542 2.539141 19.517624 52.551880 -3.552770 -7.458600 -43.144920 27.725960 18.332899 -36.822197 2.255754 -5.817031 42.646255 4.460074 6.385583 -62.381195 -3.851473 -15.771604 
5.379711 50.615532 53.640591 23.352446 0.090589 6.029453 -6.032136 -3.068377 -1.659464 -18.106951 -0.966320 -0.529157 -23.417412 -4.674449 -0.840204 49.905815 5.840121 -1.864834 -5.788594 -15.737329 -1.465587 -53.636711 -4.546397 6.981919 -68.231796 9.322686 16.217272 8.524705 12.647240 -40.823620 7.611086 14.174596 -1.900835 52.176010 -1.417166 47.018532 59.071472 -9.194452 11.989692 -8.534408 -12.637552 88.148300 -14.388301 2.720639 19.361778 52.542660 -3.547101 -7.445623 -42.593163 28.523026 18.266172 -36.671776 2.245642 -6.336639 42.656322 4.457084 6.386114 -62.246273 -3.862095 -15.644942 
5.379711 50.626419 53.621067 23.322325 -0.178195 6.188860 -5.944068 -2.728536 -1.749976 -18.194614 -1.093760 -0.567778 -23.291206 -4.711400 -0.866755 49.747692 5.871946 -1.922357 -5.788594 -15.737329 -1.465587 -53.641251 -4.497778 6.913565 -68.252457 9.320343 16.230946 8.524705 12.647240 -40.872448 7.611086 14.174596 -1.900835 52.144566 -2.089093 47.895153 60.114918 -9.286040 12.457862 -8.534408 -12.637552 89.993996 -14.472360 2.958926 19.245687 52.513306 -3.547035 -7.443144 -41.866367 29.498047 18.130346 -36.605549 2.324172 -6.733779 42.676521 4.450278 6.385305 -61.905960 -3.656123 -15.080764 
